<svg width="635" height="611" viewBox="0 0 635 611" fill="none" xmlns="http://www.w3.org/2000/svg">
<g clip-path="url(#clip0)">
<g filter="url(#filter0_d)">
<path d="M315.5 603C482.259 603 617.443 468.014 617.443 301.5C617.443 134.986 482.259 0 315.5 0C148.741 0 13.5566 134.986 13.5566 301.5C13.5566 468.014 148.741 603 315.5 603Z" fill="#F24976"/>
</g>
<path d="M370.675 458.686H260.337V513.362H370.675V458.686Z" fill="#445EA0"/>
<path d="M284.788 458.686H260.337V513.362H284.788V458.686Z" fill="#2E4C89"/>
<path d="M425.309 544.915C425.302 546.359 424.725 547.742 423.702 548.763C422.68 549.784 421.295 550.36 419.849 550.367H211.151C209.704 550.364 208.317 549.788 207.294 548.766C206.271 547.745 205.694 546.36 205.691 544.915V517.583C205.698 516.139 206.275 514.756 207.297 513.735C208.32 512.714 209.705 512.138 211.151 512.132H419.849C421.295 512.138 422.68 512.714 423.702 513.735C424.725 514.756 425.302 516.139 425.309 517.583V544.915Z" fill="#4D63AB"/>
<path d="M230.142 544.915V517.583C230.149 516.139 230.726 514.756 231.749 513.735C232.771 512.714 234.156 512.138 235.602 512.132H211.151C209.705 512.138 208.32 512.714 207.297 513.735C206.275 514.756 205.698 516.139 205.691 517.583V544.915C205.698 546.359 206.275 547.742 207.297 548.763C208.32 549.784 209.705 550.36 211.151 550.367H235.602C234.156 550.36 232.771 549.784 231.749 548.763C230.726 547.742 230.149 546.359 230.142 544.915Z" fill="#334A97"/>
<path d="M623.852 39.2196H7.14805C5.25427 39.2261 3.4399 39.9802 2.10079 41.3173C0.761678 42.6545 0.00649673 44.4662 0 46.3572L0 452.779C0.00649673 454.67 0.761678 456.482 2.10079 457.819C3.4399 459.156 5.25427 459.91 7.14805 459.917H431.68V438.566C431.68 437.521 432.096 436.52 432.835 435.781C433.575 435.043 434.578 434.628 435.624 434.628H452.299C454.05 434.562 455.744 433.987 457.171 432.972C458.599 431.957 459.698 430.548 460.334 428.918L463.477 421.386C464.182 419.798 464.402 418.038 464.108 416.325C463.814 414.613 463.02 413.026 461.825 411.763L450.093 400.146C449.359 399.408 448.947 398.411 448.947 397.371C448.947 396.331 449.359 395.334 450.093 394.596L471.364 373.528C472.113 372.791 473.123 372.379 474.174 372.383C474.695 372.379 475.212 372.478 475.694 372.675C476.176 372.871 476.615 373.161 476.984 373.528L488.717 385.145C490.39 386.698 492.595 387.552 494.879 387.532C496.102 387.544 497.311 387.279 498.416 386.757L506.057 383.631C507.68 383.001 509.082 381.91 510.089 380.493C511.097 379.075 511.666 377.394 511.726 375.657V359.265C511.726 358.219 512.141 357.216 512.881 356.476C513.62 355.736 514.623 355.318 515.67 355.315H545.79C546.837 355.318 547.841 355.736 548.58 356.476C549.319 357.216 549.734 358.219 549.734 359.265V375.657C549.8 377.405 550.38 379.096 551.401 380.518C552.422 381.941 553.84 383.032 555.477 383.656L563.118 386.794C564.203 387.294 565.386 387.546 566.581 387.532C568.865 387.551 571.07 386.697 572.743 385.145L584.476 373.528C585.225 372.795 586.231 372.384 587.28 372.384C588.328 372.384 589.335 372.795 590.084 373.528L611.355 394.608C611.723 394.97 612.014 395.401 612.213 395.876C612.413 396.352 612.515 396.862 612.515 397.377C612.515 397.892 612.413 398.402 612.213 398.878C612.014 399.353 611.723 399.784 611.355 400.146L599.635 411.763C598.434 413.037 597.638 414.639 597.348 416.365C597.059 418.091 597.288 419.864 598.008 421.46L601.138 428.991C601.785 430.606 602.887 431.999 604.312 432.999C605.736 434 607.421 434.566 609.161 434.628H625.775C626.824 434.628 627.83 435.044 628.572 435.785C629.314 436.525 629.731 437.53 629.731 438.578V456.766C630.535 455.592 630.964 454.202 630.963 452.779V46.3572C630.957 44.4725 630.207 42.6663 628.875 41.3302C627.544 39.9941 625.739 39.2358 623.852 39.2196Z" fill="#4D63AB"/>
<path d="M31.3898 388.504C31.3914 389.071 31.5054 389.633 31.7254 390.155C31.9453 390.678 32.2668 391.153 32.6713 391.551C33.0758 391.949 33.5552 392.263 34.0819 392.475C34.6087 392.687 35.1723 392.793 35.7402 392.787H451.88L471.315 373.528C472.064 372.791 473.074 372.379 474.125 372.383C474.646 372.379 475.162 372.478 475.645 372.675C476.127 372.871 476.565 373.161 476.935 373.528L488.668 385.145C490.342 386.694 492.547 387.544 494.83 387.52C496.051 387.537 497.261 387.276 498.367 386.757L506.008 383.631C507.631 382.999 509.034 381.906 510.041 380.486C511.049 379.067 511.617 377.383 511.677 375.644V359.253C511.68 358.209 512.097 357.209 512.836 356.472C513.574 355.734 514.576 355.318 515.621 355.315H545.741C546.787 355.315 547.79 355.73 548.53 356.468C549.269 357.207 549.685 358.208 549.685 359.253V375.644C549.75 377.395 550.329 379.088 551.35 380.512C552.372 381.936 553.789 383.03 555.428 383.656L563.069 386.794C564.155 387.289 565.338 387.537 566.532 387.52C568.814 387.543 571.019 386.693 572.694 385.145L584.427 373.528C585.175 372.795 586.182 372.384 587.23 372.384C588.279 372.384 589.286 372.795 590.034 373.528L599.524 382.917V109.414H31.3898V388.504Z" fill="white"/>
<path d="M55.841 388.504V109.414H31.3898V388.504C31.3914 389.071 31.5054 389.633 31.7254 390.155C31.9453 390.678 32.2668 391.153 32.6713 391.551C33.0758 391.949 33.5552 392.263 34.0819 392.475C34.6087 392.687 35.1723 392.793 35.7402 392.787H60.1422C59.0036 392.787 57.9114 392.336 57.1052 391.533C56.2989 390.73 55.8443 389.641 55.841 388.504Z" fill="#D9EAFC"/>
<g filter="url(#filter1_d)">
<path d="M307.637 298.46C302.282 293.129 295.494 289.46 288.095 287.899C280.696 286.337 273.002 286.95 265.944 289.662L218.792 242.578L209.315 252.042C209.185 252.173 209.087 252.332 209.027 252.507C208.967 252.682 208.948 252.868 208.969 253.051C209.257 255.797 208.491 258.55 206.825 260.755C206.682 260.961 206.605 261.205 206.605 261.456C206.605 261.707 206.682 261.951 206.825 262.157C208.107 264.016 208.74 266.245 208.624 268.499C208.508 270.753 207.65 272.906 206.184 274.624L243.625 312.01C241.056 318.655 240.358 325.876 241.607 332.889C242.856 339.903 246.004 346.441 250.71 351.794C255.416 357.148 261.501 361.112 268.303 363.258C275.106 365.404 282.367 365.648 289.299 363.966C289.65 363.87 289.972 363.688 290.235 363.437C290.473 363.196 290.647 362.9 290.741 362.575C290.834 362.237 290.836 361.881 290.748 361.542C290.659 361.202 290.482 360.893 290.235 360.643L266.179 336.622L290.654 312.182L314.711 336.203C314.958 336.451 315.266 336.628 315.604 336.717C315.942 336.806 316.297 336.803 316.634 336.708C316.964 336.617 317.265 336.444 317.509 336.203C317.766 335.946 317.945 335.622 318.027 335.268C319.638 328.76 319.528 321.945 317.706 315.492C315.885 309.04 312.415 303.171 307.637 298.46Z" fill="#FF9518"/>
</g>
<g filter="url(#filter2_d)">
<path d="M183.545 243.243C185.694 243.254 187.796 243.873 189.608 245.027C189.804 245.149 190.031 245.213 190.261 245.212C190.532 245.215 190.796 245.128 191.013 244.966C192.904 243.53 195.218 242.76 197.594 242.775C197.976 242.775 198.358 242.775 198.728 242.775H198.864C199.187 242.774 199.497 242.646 199.726 242.418L209.216 232.943L162.063 185.933C164.633 179.288 165.331 172.067 164.082 165.054C162.833 158.04 159.685 151.502 154.978 146.149C150.272 140.795 144.188 136.831 137.386 134.685C130.583 132.539 123.322 132.294 116.39 133.977C116.039 134.073 115.717 134.255 115.453 134.506C115.216 134.747 115.042 135.043 114.948 135.367C114.855 135.705 114.852 136.062 114.941 136.401C115.03 136.74 115.206 137.05 115.453 137.299L139.51 161.321L115.034 185.822L90.9774 161.739C90.7292 161.491 90.419 161.313 90.0787 161.224C89.7385 161.135 89.3808 161.139 89.0425 161.235C88.7152 161.324 88.4174 161.498 88.1798 161.739C87.9257 161.994 87.7466 162.313 87.6622 162.662C85.974 169.583 86.2165 176.834 88.3634 183.627C90.5103 190.42 94.4796 196.497 99.8404 201.197C105.201 205.897 111.749 209.04 118.773 210.287C125.797 211.534 133.028 210.836 139.683 208.269L177.124 245.667C178.88 244.078 181.174 243.212 183.545 243.243Z" fill="#FF9518"/>
</g>
<path d="M315.5 445.506C326.166 445.506 334.812 436.873 334.812 426.223C334.812 415.573 326.166 406.939 315.5 406.939C304.834 406.939 296.188 415.573 296.188 426.223C296.188 436.873 304.834 445.506 315.5 445.506Z" fill="#2C4583"/>
<path d="M595.322 75.6334H35.7402C34.6048 75.6399 33.5176 76.0932 32.7147 76.8949C31.9118 77.6966 31.4579 78.7822 31.4514 79.916V110.681H599.61V79.916C599.604 78.7822 599.15 77.6966 598.347 76.8949C597.544 76.0932 596.457 75.6399 595.322 75.6334Z" fill="#5DC1D8"/>
<path d="M60.1422 75.6334H35.7402C34.6048 75.6399 33.5176 76.0932 32.7147 76.8949C31.9118 77.6966 31.4579 78.7822 31.4514 79.916V110.681H55.841V79.916C55.8475 78.78 56.3032 77.6927 57.1087 76.8906C57.9143 76.0885 59.0046 75.6366 60.1422 75.6334Z" fill="#28A5A5"/>
<g filter="url(#filter3_d)">
<path d="M510.481 547.622C510.485 548.992 511.031 550.305 512.001 551.273C512.971 552.242 514.286 552.788 515.658 552.791H545.778C547.15 552.788 548.465 552.242 549.435 551.273C550.405 550.305 550.951 548.992 550.954 547.622V531.255C551.027 529.761 551.532 528.321 552.407 527.107C553.281 525.893 554.489 524.957 555.884 524.413L563.611 521.25C564.988 520.662 566.504 520.48 567.981 520.727C569.457 520.973 570.832 521.638 571.942 522.641L583.663 534.258C584.646 535.232 585.975 535.778 587.36 535.778C588.745 535.778 590.074 535.232 591.057 534.258L612.267 513.165C612.747 512.687 613.128 512.12 613.388 511.495C613.648 510.869 613.781 510.199 613.781 509.523C613.781 508.846 613.648 508.176 613.388 507.551C613.128 506.926 612.747 506.358 612.267 505.88L600.535 494.263C599.527 493.164 598.86 491.796 598.615 490.326C598.37 488.856 598.557 487.347 599.154 485.981L602.322 478.376C602.875 476.983 603.817 475.779 605.036 474.907C606.256 474.034 607.7 473.529 609.198 473.453H625.824C627.196 473.45 628.51 472.904 629.48 471.936C630.45 470.967 630.997 469.655 631 468.285V438.565C630.997 437.196 630.45 435.883 629.48 434.914C628.51 433.946 627.196 433.4 625.824 433.397H609.198C607.7 433.321 606.256 432.816 605.036 431.944C603.817 431.071 602.875 429.867 602.322 428.474L599.154 420.869C598.557 419.503 598.37 417.994 598.615 416.524C598.86 415.054 599.527 413.687 600.535 412.587L612.267 400.97C612.748 400.491 613.129 399.923 613.389 399.297C613.649 398.67 613.782 397.999 613.782 397.322C613.782 396.644 613.649 395.973 613.389 395.347C613.129 394.72 612.748 394.152 612.267 393.673L590.996 372.605C590.51 372.119 589.934 371.735 589.3 371.472C588.665 371.209 587.985 371.074 587.298 371.074C586.612 371.074 585.932 371.209 585.297 371.472C584.663 371.735 584.086 372.119 583.601 372.605L571.868 384.222C570.757 385.223 569.382 385.885 567.905 386.129C566.428 386.373 564.913 386.19 563.537 385.6L555.822 382.499C554.425 381.954 553.216 381.016 552.342 379.8C551.467 378.584 550.964 377.14 550.893 375.644V359.253C550.886 357.882 550.337 356.569 549.365 355.601C548.393 354.632 547.077 354.087 545.704 354.084H515.658C514.286 354.087 512.971 354.633 512.001 355.601C511.031 356.57 510.485 357.883 510.481 359.253V375.644C510.408 377.139 509.903 378.581 509.029 379.797C508.154 381.013 506.947 381.951 505.552 382.499L497.898 385.649C496.523 386.239 495.007 386.423 493.531 386.178C492.054 385.934 490.679 385.272 489.567 384.271L477.847 372.654C476.864 371.68 475.535 371.133 474.15 371.133C472.765 371.133 471.436 371.68 470.452 372.654L449.181 393.722C448.7 394.201 448.319 394.77 448.059 395.396C447.799 396.022 447.666 396.693 447.666 397.371C447.666 398.049 447.799 398.72 448.059 399.346C448.319 399.972 448.7 400.541 449.181 401.02L460.901 412.636C461.914 413.733 462.584 415.1 462.832 416.571C463.079 418.041 462.892 419.552 462.294 420.919L459.126 428.511C458.573 429.904 457.631 431.108 456.412 431.981C455.192 432.853 453.748 433.358 452.25 433.434H435.624C434.252 433.437 432.938 433.983 431.968 434.951C430.998 435.92 430.451 437.233 430.448 438.602V468.371C430.451 469.741 430.998 471.053 431.968 472.022C432.938 472.991 434.252 473.536 435.624 473.539H452.299C453.797 473.616 455.242 474.12 456.461 474.993C457.68 475.865 458.623 477.07 459.176 478.462L462.343 486.067C462.94 487.433 463.127 488.942 462.882 490.412C462.637 491.882 461.97 493.25 460.963 494.349L449.23 505.966C448.75 506.444 448.369 507.012 448.11 507.637C447.85 508.262 447.716 508.932 447.716 509.609C447.716 510.285 447.85 510.956 448.11 511.581C448.369 512.206 448.75 512.773 449.23 513.251L470.502 534.332C471.485 535.306 472.814 535.852 474.199 535.852C475.584 535.852 476.913 535.306 477.896 534.332L489.617 522.702C490.729 521.704 492.105 521.044 493.581 520.799C495.057 520.555 496.572 520.737 497.948 521.324L505.675 524.487C507.069 525.032 508.276 525.968 509.151 527.182C510.025 528.396 510.53 529.836 510.605 531.329V547.622H510.481Z" fill="#FF9518"/>
</g>
<path d="M530.718 501.278C521.262 501.205 512.039 498.338 504.212 493.039C496.385 487.74 490.304 480.247 486.736 471.502C483.168 462.758 482.272 453.154 484.161 443.902C486.051 434.65 490.641 426.164 497.353 419.513C504.066 412.862 512.6 408.343 521.879 406.528C531.159 404.713 540.77 405.681 549.499 409.311C558.229 412.941 565.687 419.07 570.933 426.926C576.179 434.782 578.979 444.014 578.979 453.456C578.957 459.761 577.69 465.999 575.252 471.815C572.814 477.631 569.253 482.91 564.771 487.351C560.289 491.792 554.975 495.308 549.132 497.697C543.289 500.087 537.032 501.303 530.718 501.278Z" fill="#FFAF10"/>
<path d="M497.147 453.456C497.19 441.995 501.339 430.928 508.843 422.256C516.348 413.584 526.713 407.88 538.063 406.176C535.615 405.812 533.143 405.631 530.669 405.634C524.078 405.652 517.561 407.028 511.528 409.676C505.494 412.324 500.072 416.187 495.602 421.023C491.132 425.86 487.71 431.565 485.55 437.783C483.39 444.001 482.539 450.597 483.049 457.158C483.559 463.719 485.42 470.105 488.515 475.915C491.611 481.726 495.874 486.835 501.038 490.925C506.202 495.014 512.156 497.995 518.527 499.681C524.898 501.367 531.549 501.722 538.063 500.724C526.715 499.02 516.352 493.318 508.847 484.648C501.343 475.979 497.193 464.915 497.147 453.456Z" fill="#FF9518"/>
<path d="M530.718 509.043C519.724 508.97 508.997 505.648 499.891 499.496C490.786 493.344 483.708 484.637 479.551 474.474C475.394 464.31 474.345 453.145 476.534 442.387C478.724 431.629 484.055 421.759 491.855 414.022C499.654 406.284 509.574 401.027 520.362 398.912C531.151 396.797 542.325 397.919 552.476 402.137C562.626 406.355 571.299 413.479 577.399 422.612C583.5 431.745 586.756 442.478 586.756 453.456C586.688 468.241 580.75 482.396 570.245 492.817C559.74 503.237 545.525 509.072 530.718 509.043ZM530.718 413.387C522.798 413.46 515.076 415.872 508.526 420.319C501.976 424.766 496.89 431.049 493.909 438.376C490.929 445.704 490.187 453.749 491.777 461.497C493.366 469.245 497.217 476.35 502.843 481.917C508.47 487.484 515.62 491.263 523.394 492.78C531.168 494.296 539.217 493.481 546.528 490.438C553.839 487.395 560.084 482.259 564.477 475.678C568.87 469.097 571.215 461.365 571.215 453.456C571.153 442.784 566.855 432.573 559.263 425.061C551.671 417.549 541.405 413.351 530.718 413.387Z" fill="#DB722C"/>
<path d="M530.718 473.675C526.72 473.643 522.821 472.431 519.512 470.19C516.204 467.949 513.633 464.781 512.125 461.083C510.617 457.386 510.239 453.326 511.038 449.414C511.838 445.503 513.779 441.915 516.617 439.104C519.455 436.292 523.063 434.382 526.986 433.615C530.91 432.847 534.973 433.257 538.664 434.792C542.354 436.327 545.507 438.918 547.725 442.24C549.943 445.561 551.127 449.464 551.127 453.456C551.117 456.122 550.581 458.76 549.55 461.219C548.519 463.678 547.013 465.91 545.118 467.788C543.223 469.666 540.975 471.152 538.504 472.162C536.034 473.172 533.388 473.686 530.718 473.675Z" fill="#FFAF10"/>
<path d="M525.012 453.456C525.022 449.362 526.276 445.368 528.609 442.002C530.942 438.636 534.243 436.056 538.075 434.603C535.004 433.406 531.687 432.976 528.412 433.349C525.137 433.722 522.002 434.888 519.28 436.745C516.558 438.602 514.331 441.094 512.792 444.005C511.253 446.916 510.448 450.158 510.448 453.45C510.448 456.742 511.253 459.984 512.792 462.895C514.331 465.806 516.558 468.298 519.28 470.155C522.002 472.012 525.137 473.177 528.412 473.551C531.687 473.924 535.004 473.493 538.075 472.297C534.243 470.848 530.941 468.27 528.608 464.906C526.275 461.541 525.021 457.548 525.012 453.456Z" fill="#FF9518"/>
<path d="M530.718 481.428C525.184 481.396 519.784 479.729 515.199 476.636C510.613 473.543 507.047 469.164 504.952 464.05C502.856 458.936 502.324 453.317 503.423 447.902C504.522 442.486 507.203 437.517 511.126 433.621C515.05 429.725 520.042 427.077 525.472 426.011C530.901 424.944 536.525 425.507 541.635 427.629C546.744 429.751 551.11 433.336 554.181 437.932C557.252 442.529 558.891 447.931 558.891 453.456C558.862 460.893 555.879 468.015 550.597 473.259C545.315 478.503 538.166 481.441 530.718 481.428ZM530.718 440.99C528.255 441.019 525.856 441.775 523.823 443.162C521.789 444.55 520.212 446.507 519.29 448.787C518.367 451.067 518.141 453.569 518.64 455.977C519.138 458.386 520.338 460.593 522.09 462.322C523.842 464.05 526.066 465.223 528.484 465.692C530.902 466.161 533.404 465.906 535.677 464.958C537.949 464.011 539.891 462.413 541.256 460.366C542.621 458.319 543.35 455.915 543.35 453.456C543.327 450.131 541.984 446.951 539.616 444.614C537.248 442.277 534.048 440.974 530.718 440.99Z" fill="#DB722C"/>
<path d="M173.081 265.332L186.428 278.66C187.502 279.731 188.341 281.014 188.893 282.425L194.673 276.642C193.294 276.038 192.04 275.182 190.976 274.119L177.629 260.804C176.567 259.738 175.71 258.487 175.102 257.112L169.322 262.883C170.733 263.428 172.014 264.262 173.081 265.332Z" fill="#445EA0"/>
<g filter="url(#filter4_d)">
<path d="M311.47 147.378L304.556 140.462C304.131 140.082 303.606 139.83 303.043 139.736C302.48 139.642 301.902 139.711 301.376 139.933L285.922 147.452C284.808 148.064 283.892 148.982 283.285 150.098L276.42 164.127L198.839 241.655C197.102 241.468 195.346 241.66 193.69 242.217C192.035 242.773 190.52 243.682 189.251 244.88C190.15 245.394 190.978 246.023 191.716 246.75L205.075 260.028C205.806 260.768 206.444 261.595 206.973 262.49C208.167 261.221 209.073 259.71 209.628 258.06C210.183 256.409 210.375 254.659 210.19 252.928L287.771 175.399L301.832 168.594C302.95 167.987 303.869 167.073 304.482 165.96L312.012 150.553C312.236 150.028 312.304 149.449 312.208 148.886C312.112 148.323 311.856 147.8 311.47 147.378Z" fill="#445EA0"/>
</g>
<path d="M206.739 275.78C202.376 280.137 194.883 279.78 190.101 274.993L176.754 261.665C171.96 256.878 171.602 249.359 175.965 245.052C180.328 240.745 187.809 241.052 192.603 245.839L205.95 259.167C210.744 263.954 211.102 271.424 206.739 275.78Z" fill="#293D7C"/>
<g filter="url(#filter5_d)">
<path d="M530.471 168.594H367.952C365.5 168.594 363.149 167.621 361.416 165.891C359.683 164.16 358.709 161.812 358.709 159.364C358.709 156.916 359.683 154.569 361.416 152.838C363.149 151.107 365.5 150.135 367.952 150.135H530.471C532.923 150.135 535.274 151.107 537.007 152.838C538.741 154.569 539.714 156.916 539.714 159.364C539.714 161.812 538.741 164.16 537.007 165.891C535.274 167.621 532.923 168.594 530.471 168.594Z" fill="#69CDFF"/>
</g>
<g filter="url(#filter6_d)">
<path d="M530.471 198.707H367.952C365.5 198.707 363.149 197.735 361.416 196.004C359.683 194.273 358.709 191.925 358.709 189.477C358.709 187.03 359.683 184.682 361.416 182.951C363.149 181.22 365.5 180.248 367.952 180.248H530.471C532.923 180.248 535.274 181.22 537.007 182.951C538.741 184.682 539.714 187.03 539.714 189.477C539.714 191.925 538.741 194.273 537.007 196.004C535.274 197.735 532.923 198.707 530.471 198.707Z" fill="#69CDFF"/>
</g>
<g filter="url(#filter7_d)">
<path d="M530.471 228.894H367.952C365.5 228.894 363.149 227.922 361.416 226.191C359.683 224.46 358.709 222.112 358.709 219.664C358.709 217.217 359.683 214.869 361.416 213.138C363.149 211.407 365.5 210.435 367.952 210.435H530.471C532.923 210.435 535.274 211.407 537.007 213.138C538.741 214.869 539.714 217.217 539.714 219.664C539.714 222.112 538.741 224.46 537.007 226.191C535.274 227.922 532.923 228.894 530.471 228.894Z" fill="#69CDFF"/>
</g>
<g filter="url(#filter8_d)">
<path d="M530.471 279.349H367.952C365.5 279.349 363.149 278.377 361.416 276.646C359.683 274.915 358.709 272.567 358.709 270.119C358.709 267.672 359.683 265.324 361.416 263.593C363.149 261.862 365.5 260.89 367.952 260.89H530.471C532.923 260.89 535.274 261.862 537.007 263.593C538.741 265.324 539.714 267.672 539.714 270.119C539.714 272.567 538.741 274.915 537.007 276.646C535.274 278.377 532.923 279.349 530.471 279.349Z" fill="#37C47A"/>
</g>
<g filter="url(#filter9_d)">
<path d="M530.471 309.462H367.952C365.5 309.462 363.149 308.49 361.416 306.759C359.683 305.028 358.709 302.68 358.709 300.233C358.709 297.785 359.683 295.437 361.416 293.706C363.149 291.975 365.5 291.003 367.952 291.003H530.471C532.923 291.003 535.274 291.975 537.007 293.706C538.741 295.437 539.714 297.785 539.714 300.233C539.714 302.68 538.741 305.028 537.007 306.759C535.274 308.49 532.923 309.462 530.471 309.462Z" fill="#37C47A"/>
</g>
<g filter="url(#filter10_d)">
<path d="M448.7 339.649H367.952C365.5 339.649 363.149 338.677 361.416 336.946C359.683 335.215 358.709 332.867 358.709 330.419C358.709 327.971 359.683 325.624 361.416 323.893C363.149 322.162 365.5 321.19 367.952 321.19H448.7C451.152 321.19 453.503 322.162 455.236 323.893C456.97 325.624 457.943 327.971 457.943 330.419C457.943 332.867 456.97 335.215 455.236 336.946C453.503 338.677 451.152 339.649 448.7 339.649Z" fill="#37C47A"/>
</g>
<g filter="url(#filter11_d)">
<path d="M130.119 352.287C127.808 354.594 124.674 355.89 121.406 355.89C118.138 355.89 115.004 354.594 112.693 352.287L99.3455 338.96C98.1996 337.817 97.2906 336.46 96.6704 334.966C96.0502 333.472 95.731 331.87 95.731 330.253C95.731 328.636 96.0502 327.035 96.6704 325.541C97.2906 324.047 98.1996 322.69 99.3455 321.547L156.518 264.459C158.829 262.151 161.963 260.855 165.231 260.855C168.499 260.855 171.633 262.151 173.944 264.459L187.328 277.786C189.639 280.094 190.936 283.223 190.936 286.486C190.936 289.75 189.639 292.879 187.328 295.187L130.119 352.287Z" fill="#293D7C"/>
</g>
<g filter="url(#filter12_d)">
<path d="M120.112 338.96C118.966 337.817 118.057 336.46 117.437 334.966C116.816 333.472 116.497 331.871 116.497 330.253C116.497 328.636 116.816 327.035 117.437 325.541C118.057 324.047 118.966 322.69 120.112 321.547L175.571 266.169L173.907 264.508C171.596 262.201 168.462 260.905 165.194 260.905C161.926 260.905 158.792 262.201 156.481 264.508L99.2962 321.596C98.1503 322.739 97.2413 324.096 96.6211 325.59C96.0009 327.084 95.6816 328.685 95.6816 330.303C95.6816 331.92 96.0009 333.521 96.6211 335.015C97.2413 336.509 98.1503 337.866 99.2962 339.009L112.643 352.324C114.954 354.631 118.089 355.927 121.357 355.927C124.624 355.927 127.759 354.631 130.07 352.324L131.734 350.663L120.112 338.96Z" fill="#1A2B63"/>
</g>
<g filter="url(#filter13_d)">
<path d="M183.976 253.051C188.339 248.694 195.82 249.051 200.614 253.838L192.603 245.839C187.809 241.052 180.279 240.695 175.965 245.052C171.652 249.408 171.96 256.878 176.754 261.665L184.752 269.664C179.934 264.877 179.613 257.407 183.976 253.051Z" fill="#1A2B63"/>
</g>
</g>
<defs>
<filter id="filter0_d" x="9.55664" y="0" width="611.887" height="611" filterUnits="userSpaceOnUse" color-interpolation-filters="sRGB">
<feFlood flood-opacity="0" result="BackgroundImageFix"/>
<feColorMatrix in="SourceAlpha" type="matrix" values="0 0 0 0 0 0 0 0 0 0 0 0 0 0 0 0 0 0 127 0"/>
<feOffset dy="4"/>
<feGaussianBlur stdDeviation="2"/>
<feColorMatrix type="matrix" values="0 0 0 0 0 0 0 0 0 0 0 0 0 0 0 0 0 0 0.25 0"/>
<feBlend mode="normal" in2="BackgroundImageFix" result="effect1_dropShadow"/>
<feBlend mode="normal" in="SourceGraphic" in2="effect1_dropShadow" result="shape"/>
</filter>
<filter id="filter1_d" x="202.184" y="242.578" width="120.975" height="130.491" filterUnits="userSpaceOnUse" color-interpolation-filters="sRGB">
<feFlood flood-opacity="0" result="BackgroundImageFix"/>
<feColorMatrix in="SourceAlpha" type="matrix" values="0 0 0 0 0 0 0 0 0 0 0 0 0 0 0 0 0 0 127 0"/>
<feOffset dy="4"/>
<feGaussianBlur stdDeviation="2"/>
<feColorMatrix type="matrix" values="0 0 0 0 0 0 0 0 0 0 0 0 0 0 0 0 0 0 0.25 0"/>
<feBlend mode="normal" in2="BackgroundImageFix" result="effect1_dropShadow"/>
<feBlend mode="normal" in="SourceGraphic" in2="effect1_dropShadow" result="shape"/>
</filter>
<filter id="filter2_d" x="82.5529" y="132.873" width="130.663" height="120.794" filterUnits="userSpaceOnUse" color-interpolation-filters="sRGB">
<feFlood flood-opacity="0" result="BackgroundImageFix"/>
<feColorMatrix in="SourceAlpha" type="matrix" values="0 0 0 0 0 0 0 0 0 0 0 0 0 0 0 0 0 0 127 0"/>
<feOffset dy="4"/>
<feGaussianBlur stdDeviation="2"/>
<feColorMatrix type="matrix" values="0 0 0 0 0 0 0 0 0 0 0 0 0 0 0 0 0 0 0.25 0"/>
<feBlend mode="normal" in2="BackgroundImageFix" result="effect1_dropShadow"/>
<feBlend mode="normal" in="SourceGraphic" in2="effect1_dropShadow" result="shape"/>
</filter>
<filter id="filter3_d" x="426.448" y="354.084" width="208.552" height="206.707" filterUnits="userSpaceOnUse" color-interpolation-filters="sRGB">
<feFlood flood-opacity="0" result="BackgroundImageFix"/>
<feColorMatrix in="SourceAlpha" type="matrix" values="0 0 0 0 0 0 0 0 0 0 0 0 0 0 0 0 0 0 127 0"/>
<feOffset dy="4"/>
<feGaussianBlur stdDeviation="2"/>
<feColorMatrix type="matrix" values="0 0 0 0 0 0 0 0 0 0 0 0 0 0 0 0 0 0 0.25 0"/>
<feBlend mode="normal" in2="BackgroundImageFix" result="effect1_dropShadow"/>
<feBlend mode="normal" in="SourceGraphic" in2="effect1_dropShadow" result="shape"/>
</filter>
<filter id="filter4_d" x="185.251" y="139.695" width="131" height="130.794" filterUnits="userSpaceOnUse" color-interpolation-filters="sRGB">
<feFlood flood-opacity="0" result="BackgroundImageFix"/>
<feColorMatrix in="SourceAlpha" type="matrix" values="0 0 0 0 0 0 0 0 0 0 0 0 0 0 0 0 0 0 127 0"/>
<feOffset dy="4"/>
<feGaussianBlur stdDeviation="2"/>
<feColorMatrix type="matrix" values="0 0 0 0 0 0 0 0 0 0 0 0 0 0 0 0 0 0 0.25 0"/>
<feBlend mode="normal" in2="BackgroundImageFix" result="effect1_dropShadow"/>
<feBlend mode="normal" in="SourceGraphic" in2="effect1_dropShadow" result="shape"/>
</filter>
<filter id="filter5_d" x="354.709" y="150.135" width="189.006" height="26.4592" filterUnits="userSpaceOnUse" color-interpolation-filters="sRGB">
<feFlood flood-opacity="0" result="BackgroundImageFix"/>
<feColorMatrix in="SourceAlpha" type="matrix" values="0 0 0 0 0 0 0 0 0 0 0 0 0 0 0 0 0 0 127 0"/>
<feOffset dy="4"/>
<feGaussianBlur stdDeviation="2"/>
<feColorMatrix type="matrix" values="0 0 0 0 0 0 0 0 0 0 0 0 0 0 0 0 0 0 0.25 0"/>
<feBlend mode="normal" in2="BackgroundImageFix" result="effect1_dropShadow"/>
<feBlend mode="normal" in="SourceGraphic" in2="effect1_dropShadow" result="shape"/>
</filter>
<filter id="filter6_d" x="354.709" y="180.248" width="189.006" height="26.4592" filterUnits="userSpaceOnUse" color-interpolation-filters="sRGB">
<feFlood flood-opacity="0" result="BackgroundImageFix"/>
<feColorMatrix in="SourceAlpha" type="matrix" values="0 0 0 0 0 0 0 0 0 0 0 0 0 0 0 0 0 0 127 0"/>
<feOffset dy="4"/>
<feGaussianBlur stdDeviation="2"/>
<feColorMatrix type="matrix" values="0 0 0 0 0 0 0 0 0 0 0 0 0 0 0 0 0 0 0.25 0"/>
<feBlend mode="normal" in2="BackgroundImageFix" result="effect1_dropShadow"/>
<feBlend mode="normal" in="SourceGraphic" in2="effect1_dropShadow" result="shape"/>
</filter>
<filter id="filter7_d" x="354.709" y="210.435" width="189.006" height="26.4592" filterUnits="userSpaceOnUse" color-interpolation-filters="sRGB">
<feFlood flood-opacity="0" result="BackgroundImageFix"/>
<feColorMatrix in="SourceAlpha" type="matrix" values="0 0 0 0 0 0 0 0 0 0 0 0 0 0 0 0 0 0 127 0"/>
<feOffset dy="4"/>
<feGaussianBlur stdDeviation="2"/>
<feColorMatrix type="matrix" values="0 0 0 0 0 0 0 0 0 0 0 0 0 0 0 0 0 0 0.25 0"/>
<feBlend mode="normal" in2="BackgroundImageFix" result="effect1_dropShadow"/>
<feBlend mode="normal" in="SourceGraphic" in2="effect1_dropShadow" result="shape"/>
</filter>
<filter id="filter8_d" x="354.709" y="260.89" width="189.006" height="26.4592" filterUnits="userSpaceOnUse" color-interpolation-filters="sRGB">
<feFlood flood-opacity="0" result="BackgroundImageFix"/>
<feColorMatrix in="SourceAlpha" type="matrix" values="0 0 0 0 0 0 0 0 0 0 0 0 0 0 0 0 0 0 127 0"/>
<feOffset dy="4"/>
<feGaussianBlur stdDeviation="2"/>
<feColorMatrix type="matrix" values="0 0 0 0 0 0 0 0 0 0 0 0 0 0 0 0 0 0 0.25 0"/>
<feBlend mode="normal" in2="BackgroundImageFix" result="effect1_dropShadow"/>
<feBlend mode="normal" in="SourceGraphic" in2="effect1_dropShadow" result="shape"/>
</filter>
<filter id="filter9_d" x="354.709" y="291.003" width="189.006" height="26.4592" filterUnits="userSpaceOnUse" color-interpolation-filters="sRGB">
<feFlood flood-opacity="0" result="BackgroundImageFix"/>
<feColorMatrix in="SourceAlpha" type="matrix" values="0 0 0 0 0 0 0 0 0 0 0 0 0 0 0 0 0 0 127 0"/>
<feOffset dy="4"/>
<feGaussianBlur stdDeviation="2"/>
<feColorMatrix type="matrix" values="0 0 0 0 0 0 0 0 0 0 0 0 0 0 0 0 0 0 0.25 0"/>
<feBlend mode="normal" in2="BackgroundImageFix" result="effect1_dropShadow"/>
<feBlend mode="normal" in="SourceGraphic" in2="effect1_dropShadow" result="shape"/>
</filter>
<filter id="filter10_d" x="354.709" y="321.19" width="107.235" height="26.4592" filterUnits="userSpaceOnUse" color-interpolation-filters="sRGB">
<feFlood flood-opacity="0" result="BackgroundImageFix"/>
<feColorMatrix in="SourceAlpha" type="matrix" values="0 0 0 0 0 0 0 0 0 0 0 0 0 0 0 0 0 0 127 0"/>
<feOffset dy="4"/>
<feGaussianBlur stdDeviation="2"/>
<feColorMatrix type="matrix" values="0 0 0 0 0 0 0 0 0 0 0 0 0 0 0 0 0 0 0.25 0"/>
<feBlend mode="normal" in2="BackgroundImageFix" result="effect1_dropShadow"/>
<feBlend mode="normal" in="SourceGraphic" in2="effect1_dropShadow" result="shape"/>
</filter>
<filter id="filter11_d" x="91.731" y="260.855" width="103.206" height="103.035" filterUnits="userSpaceOnUse" color-interpolation-filters="sRGB">
<feFlood flood-opacity="0" result="BackgroundImageFix"/>
<feColorMatrix in="SourceAlpha" type="matrix" values="0 0 0 0 0 0 0 0 0 0 0 0 0 0 0 0 0 0 127 0"/>
<feOffset dy="4"/>
<feGaussianBlur stdDeviation="2"/>
<feColorMatrix type="matrix" values="0 0 0 0 0 0 0 0 0 0 0 0 0 0 0 0 0 0 0.25 0"/>
<feBlend mode="normal" in2="BackgroundImageFix" result="effect1_dropShadow"/>
<feBlend mode="normal" in="SourceGraphic" in2="effect1_dropShadow" result="shape"/>
</filter>
<filter id="filter12_d" x="91.6816" y="260.905" width="87.8891" height="103.023" filterUnits="userSpaceOnUse" color-interpolation-filters="sRGB">
<feFlood flood-opacity="0" result="BackgroundImageFix"/>
<feColorMatrix in="SourceAlpha" type="matrix" values="0 0 0 0 0 0 0 0 0 0 0 0 0 0 0 0 0 0 127 0"/>
<feOffset dy="4"/>
<feGaussianBlur stdDeviation="2"/>
<feColorMatrix type="matrix" values="0 0 0 0 0 0 0 0 0 0 0 0 0 0 0 0 0 0 0.25 0"/>
<feBlend mode="normal" in2="BackgroundImageFix" result="effect1_dropShadow"/>
<feBlend mode="normal" in="SourceGraphic" in2="effect1_dropShadow" result="shape"/>
</filter>
<filter id="filter13_d" x="168.932" y="242.003" width="35.6818" height="35.6607" filterUnits="userSpaceOnUse" color-interpolation-filters="sRGB">
<feFlood flood-opacity="0" result="BackgroundImageFix"/>
<feColorMatrix in="SourceAlpha" type="matrix" values="0 0 0 0 0 0 0 0 0 0 0 0 0 0 0 0 0 0 127 0"/>
<feOffset dy="4"/>
<feGaussianBlur stdDeviation="2"/>
<feColorMatrix type="matrix" values="0 0 0 0 0 0 0 0 0 0 0 0 0 0 0 0 0 0 0.25 0"/>
<feBlend mode="normal" in2="BackgroundImageFix" result="effect1_dropShadow"/>
<feBlend mode="normal" in="SourceGraphic" in2="effect1_dropShadow" result="shape"/>
</filter>
<clipPath id="clip0">
<rect width="635" height="611" fill="white"/>
</clipPath>
</defs>
</svg>
